HIERARCHY
ROOT hip
{
  OFFSET 0 0 0
  CHANNELS 6 Xposition Yposition Zposition Zrotation Yrotation Xrotation
  JOINT abdomen
  {
    OFFSET 0 20.6881 -0.73152
    CHANNELS 3 Zrotation Xrotation Yrotation
    JOINT chest
    {
      OFFSET 0 11.7043 -0.48768
      CHANNELS 3 Zrotation Xrotation Yrotation
      JOINT neck
      {
        OFFSET 0 22.1894 -2.19456
        CHANNELS 3 Zrotation Xrotation Yrotation
        JOINT head
        {
          OFFSET -0.24384 7.07133 1.2192
          CHANNELS 3 Zrotation Xrotation Yrotation
          JOINT leftEye
          {
            OFFSET 4.14528 8.04674 8.04672
            CHANNELS 3 Zrotation Xrotation Yrotation
            End Site
            {
              OFFSET 1 0 0
            }
          }
          JOINT rightEye
          {
            OFFSET -3.6576 8.04674 8.04672
            CHANNELS 3 Zrotation Xrotation Yrotation
            End Site
            {
              OFFSET 1 0 0
            }
          }
        }
      }
      JOINT rCollar
      {
        OFFSET -2.68224 19.2634 -4.8768
        CHANNELS 3 Zrotation Xrotation Yrotation
        JOINT rShldr
        {
          OFFSET -8.77824 -1.95073 1.46304
          CHANNELS 3 Zrotation Xrotation Yrotation
          JOINT rForeArm
          {
            OFFSET -28.1742 -1.7115 0.48768
            CHANNELS 3 Zrotation Xrotation Yrotation
            JOINT rHand
            {
              OFFSET -22.5879 0.773209 7.07136
              CHANNELS 3 Zrotation Xrotation Yrotation
              JOINT rThumb1
              {
                OFFSET -1.2192 -0.487915 3.41376
                CHANNELS 3 Zrotation Xrotation Yrotation
                JOINT rThumb2
                {
                  OFFSET -3.37035 -0.52449 3.41376
                  CHANNELS 3 Zrotation Xrotation Yrotation
                  End Site
                  {
                    OFFSET -1.78271 -1.18214 1.43049
                  }
                }
              }
              JOINT rIndex1
              {
                OFFSET -7.75947 0.938293 5.60832
                CHANNELS 3 Zrotation Xrotation Yrotation
                JOINT rIndex2
                {
                  OFFSET -2.54057 -0.884171 1.56538
                  CHANNELS 3 Zrotation Xrotation Yrotation
                  End Site
                  {
                    OFFSET -1.62519 -0.234802 1.16502
                  }
                }
              }
              JOINT rMid1
              {
                OFFSET -8.24714 1.18213 3.41376
                CHANNELS 3 Zrotation Xrotation Yrotation
                JOINT rMid2
                {
                  OFFSET -3.10165 -0.590103 1.0647
                  CHANNELS 3 Zrotation Xrotation Yrotation
                  End Site
                  {
                    OFFSET -2.48547 -0.328903 0.83742
                  }
                }
              }
              JOINT rRing1
              {
                OFFSET -8.82822 0.546677 1.51678
                CHANNELS 3 Zrotation Xrotation Yrotation
                JOINT rRing2
                {
                  OFFSET -2.60934 -0.819778 -0.0198488
                  CHANNELS 3 Zrotation Xrotation Yrotation
                  End Site
                  {
                    OFFSET -2.33842 -0.294052 0.168128
                  }
                }
              }
              JOINT rPinky1
              {
                OFFSET -8.27202 -0.0477905 -0.4584
                CHANNELS 3 Zrotation Xrotation Yrotation
                JOINT rPinky2
                {
                  OFFSET -1.82734 -0.647385 -0.700984
                  CHANNELS 3 Zrotation Xrotation Yrotation
                  End Site
                  {
                    OFFSET -1.69225 -0.51767 -0.607171
                  }
                }
              }
            }
          }
        }
      }
      JOINT lCollar
      {
        OFFSET 2.68224 19.2634 -4.8768
        CHANNELS 3 Zrotation Xrotation Yrotation
        JOINT lShldr
        {
          OFFSET 8.77824 -1.95073 1.46304
          CHANNELS 3 Zrotation Xrotation Yrotation
          JOINT lForeArm
          {
            OFFSET 28.1742 -1.7115 0.48768
            CHANNELS 3 Zrotation Xrotation Yrotation
            JOINT lHand
            {
              OFFSET 22.5879 0.773209 7.07136
              CHANNELS 3 Zrotation Xrotation Yrotation
              JOINT lThumb1
              {
                OFFSET 1.2192 -0.487915 3.41376
                CHANNELS 3 Zrotation Xrotation Yrotation
                JOINT lThumb2
                {
                  OFFSET 3.37035 -0.52449 3.41376
                  CHANNELS 3 Zrotation Xrotation Yrotation
                  End Site
                  {
                    OFFSET 1.78271 -1.18214 1.43049
                  }
                }
              }
              JOINT lIndex1
              {
                OFFSET 7.75947 0.938293 5.60832
                CHANNELS 3 Zrotation Xrotation Yrotation
                JOINT lIndex2
                {
                  OFFSET 2.54057 -0.884171 1.56538
                  CHANNELS 3 Zrotation Xrotation Yrotation
                  End Site
                  {
                    OFFSET 1.62519 -0.234802 1.16502
                  }
                }
              }
              JOINT lMid1
              {
                OFFSET 8.24714 1.18213 3.41376
                CHANNELS 3 Zrotation Xrotation Yrotation
                JOINT lMid2
                {
                  OFFSET 3.10165 -0.590103 1.0647
                  CHANNELS 3 Zrotation Xrotation Yrotation
                  End Site
                  {
                    OFFSET 2.48547 -0.328903 0.83742
                  }
                }
              }
              JOINT lRing1
              {
                OFFSET 8.82822 0.546677 1.51678
                CHANNELS 3 Zrotation Xrotation Yrotation
                JOINT lRing2
                {
                  OFFSET 2.60934 -0.819778 -0.0198488
                  CHANNELS 3 Zrotation Xrotation Yrotation
                  End Site
                  {
                    OFFSET 2.33842 -0.294052 0.168128
                  }
                }
              }
              JOINT lPinky1
              {
                OFFSET 8.27202 -0.0477905 -0.4584
                CHANNELS 3 Zrotation Xrotation Yrotation
                JOINT lPinky2
                {
                  OFFSET 1.82734 -0.647385 -0.700984
                  CHANNELS 3 Zrotation Xrotation Yrotation
                  End Site
                  {
                    OFFSET 1.69225 -0.51767 -0.607171
                  }
                }
              }
            }
          }
        }
      }
    }
  }
  JOINT rButtock
  {
    OFFSET -8.77824 4.35084 1.2192
    CHANNELS 3 Zrotation Xrotation Yrotation
    JOINT rThigh
    {
      OFFSET 0 -1.70687 -2.19456
      CHANNELS 3 Zrotation Xrotation Yrotation
      JOINT rShin
      {
        OFFSET 0 -36.8199 0.73152
        CHANNELS 3 Zrotation Xrotation Yrotation
        JOINT rFoot
        {
          OFFSET 0.73152 -45.1104 -5.12064
          CHANNELS 3 Zrotation Xrotation Yrotation
          End Site
          {
            OFFSET -1.1221 -3.69964 12.103
          }
        }
      }
    }
  }
  JOINT lButtock
  {
    OFFSET 8.77824 4.35084 1.2192
    CHANNELS 3 Zrotation Xrotation Yrotation
    JOINT lThigh
    {
      OFFSET 0 -1.70687 -2.19456
      CHANNELS 3 Zrotation Xrotation Yrotation
      JOINT lShin
      {
        OFFSET 0 -36.8199 0.73152
        CHANNELS 3 Zrotation Xrotation Yrotation
        JOINT lFoot
        {
          OFFSET -0.73152 -45.1104 -5.12064
          CHANNELS 3 Zrotation Xrotation Yrotation
          End Site
          {
            OFFSET 1.1221 -3.69964 12.103
          }
        }
      }
    }
  }
}
MOTION
Frames:	4
Frame Time:	0.03333
-1.7815429717302322 0.7258312776684761 -0.9875616058707237 30.040740966796875 29.65921401977539 -63.84714889526367 -61.039039611816406 56.34657669067383 -47.423072814941406 -18.619903564453125 3.663611650466919 -51.77409744262695 87.56001281738281 9.216153144836426 139.76483154296875 -163.02835083007812 25.06552505493164 19.600265502929688 -2.895782232284546 -0.8955013751983643 165.14744567871094 -4.26724100112915 -13.147643089294434 90.62725830078125 83.16402435302734 -25.527368545532227 -150.15335083007812 158.43521118164062 -26.39534568786621 85.10237121582031 76.91629028320312 30.141206741333008 -177.91085815429688 -153.024658203125 24.983266830444336 9.219940185546875 81.19636535644531 -73.3528823852539 -116.0067367553711 -115.2839584350586 -29.967206954956055 -159.78900146484375 -101.03646850585938 -58.06553268432617 151.48434448242188 103.79220581054688 -16.738645553588867 -164.9739227294922 129.14541625976562 12.954344749450684 42.60761260986328 -139.61424255371094 -69.07283020019531 -77.2088851928711 170.1259307861328 -44.09300231933594 46.50677490234375 165.67588806152344 20.339107513427734 -33.26872253417969 -172.44891357421875 3.80143666267395 89.16091918945312 -72.71820068359375 22.464271545410156 -100.4896011352539 -107.17741394042969 53.15960693359375 -114.34486389160156 -54.948909759521484 31.831830978393555 -96.224365234375 135.26902770996094 -1.9781279563903809 -16.047327041625977 -153.97848510742188 -33.603660583496094 168.2799835205078 -124.09375 12.335630416870117 101.94573974609375 128.10092163085938 -43.95526885986328 73.8203353881836 130.6686553955078 -36.651180267333984 -109.749267578125 -102.46574401855469 -8.962257385253906 -78.52781677246094 78.07979583740234 9.43122386932373 -98.92520141601562 -2.1640803813934326 -55.22615051269531 120.5958480834961 61.38557815551758 42.03628158569336 -65.2198257446289 -27.524568557739258 -54.57218933105469 96.71383666992188 172.15357971191406 -47.42150115966797 63.71129608154297 97.77395629882812 -64.04364013671875 -178.39601135253906 -149.03793334960938 -42.74052429199219 -73.2519302368164 -147.7374725341797 -30.087501525878906 -76.35547637939453 -76.31459045410156 -2.109999656677246 79.21762084960938 59.988502502441406 58.707008361816406 -133.76792907714844 120.10894012451172 -81.34146881103516 26.48600959777832 -5.455595016479492 -65.5979995727539 -30.424659729003906 -16.633222579956055 -2.636471748352051 113.30037689208984 -50.135101318359375 -18.70941162109375 91.2854995727539
-3.389650210738182 0.9565424174070358 -1.630879007279873 11.480880737304688 29.589420318603516 -58.23363494873047 -56.14320755004883 55.21883010864258 -47.35350036621094 -15.745121955871582 6.192469596862793 -56.7254638671875 76.62555694580078 8.384323120117188 129.30599975585938 -169.4251708984375 30.441858291625977 13.438289642333984 -2.398794174194336 3.8983421325683594 157.401611328125 -3.463820457458496 -15.829618453979492 89.17410278320312 82.607666015625 -37.00650405883789 -150.51614379882812 157.5877227783203 -28.831459045410156 85.23590850830078 73.42703247070312 34.077762603759766 179.26983642578125 -177.47560119628906 31.706876754760742 16.159339904785156 89.35154724121094 -70.72390747070312 -108.77857971191406 -115.9793930053711 -32.42167663574219 -161.12892150878906 -97.771240234375 -48.89615249633789 145.7063751220703 110.58746337890625 -16.16054344177246 -177.36416625976562 128.98377990722656 26.784914016723633 47.25511932373047 178.61045837402344 -75.13031768798828 -115.84557342529297 169.0943145751953 -37.981903076171875 35.602500915527344 168.58279418945312 26.574649810791016 -36.12225341796875 -174.04464721679688 3.176597833633423 87.15338897705078 -66.25456237792969 32.828277587890625 -97.09888458251953 -107.0130844116211 52.63753890991211 -120.1583480834961 -55.191715240478516 19.38169288635254 -99.36178588867188 134.77349853515625 5.1714186668396 -18.346420288085938 -149.67005920410156 -20.013280868530273 167.2367706298828 -122.01012420654297 23.23927116394043 89.20455169677734 127.63811492919922 -46.427772521972656 77.08079528808594 146.28170776367188 -43.57037353515625 -100.11393737792969 -102.06057739257812 -7.929040431976318 -81.92296600341797 84.16436767578125 9.091309547424316 -104.13294219970703 -11.644342422485352 -43.38861846923828 113.8620834350586 60.44628143310547 43.162872314453125 -65.80486297607422 -18.064346313476562 -53.45408630371094 95.12357330322266 147.6232147216797 -47.560794830322266 41.99867630004883 106.70083618164062 -60.203880310058594 -170.10360717773438 -142.81300354003906 -45.02679443359375 -79.42390441894531 -158.86256408691406 -21.122711181640625 -82.86074829101562 -79.54564666748047 0.6986380815505981 86.66047668457031 51.11616897583008 53.79973220825195 -130.08958435058594 126.57047271728516 -77.66690826416016 34.942832946777344 16.263219833374023 -64.80127716064453 -4.183628082275391 -11.745536804199219 -1.0645512342453003 119.92754364013672 -59.36309051513672 -23.8914794921875 87.22823333740234
-4.949795268476009 1.101407129317522 -2.030502911657095 2.620025873184204 27.362932205200195 -52.325313568115234 -50.59712219238281 53.87712097167969 -48.74361038208008 -17.07022476196289 6.457979202270508 -57.30618667602539 73.7798080444336 8.501216888427734 126.79296112060547 -173.07772827148438 32.27888488769531 11.689655303955078 -1.4246195554733276 2.586475133895874 153.13644409179688 -3.0710179805755615 -15.63681411743164 89.36412811279297 83.09400177001953 -44.17512130737305 -150.3344268798828 157.05252075195312 -29.914880752563477 85.39728546142578 71.91929626464844 36.67437744140625 179.02542114257812 171.49575805664062 32.74852752685547 19.423553466796875 98.18003845214844 -66.26495361328125 -97.3675765991211 -111.41209411621094 -32.639583587646484 -155.76513671875 -98.84107971191406 -44.36347961425781 137.6531524658203 114.61672973632812 -17.41154670715332 175.67286682128906 129.28244018554688 33.99601745605469 48.73467254638672 158.7109375 -75.36361694335938 -135.46505737304688 170.7279510498047 -35.46583557128906 30.116283416748047 170.77590942382812 28.147245407104492 -38.027381896972656 -175.04151916503906 0.9471805691719055 84.17552185058594 -63.7308235168457 38.70819854736328 -92.96527099609375 -108.95330047607422 51.19521713256836 -121.9559326171875 -57.071136474609375 12.1319580078125 -103.08843231201172 132.86846923828125 8.3065767288208 -21.86838150024414 -144.076904296875 -12.578530311584473 168.56076049804688 -119.31449127197266 29.90797996520996 80.90643310546875 130.8252410888672 -45.67415237426758 81.69233703613281 154.85986328125 -49.086639404296875 -93.19806671142578 -101.9683837890625 -7.426673412322998 -83.32869720458984 84.59696197509766 9.682365417480469 -105.35022735595703 -16.2279109954834 -33.77499008178711 109.67647552490234 58.314613342285156 43.789588928222656 -64.97230529785156 -13.073780059814453 -52.694908142089844 93.76464080810547 137.55825805664062 -45.33104705810547 28.563621520996094 110.00920104980469 -58.481689453125 -166.74078369140625 -140.02606201171875 -43.42235565185547 -82.35536193847656 -166.9784393310547 -18.322757720947266 -88.2866439819336 -80.63861083984375 0.9013646245002747 90.63311767578125 46.577632904052734 47.00618362426758 -127.68473815917969 124.63617706298828 -75.42411041259766 35.76156234741211 21.799968719482422 -63.23391342163086 3.7059719562530518 -10.554381370544434 0.8117679357528687 124.28416442871094 -66.95789337158203 -25.614065170288086 84.45146942138672
-6.506789196282625 1.1677520349621773 -2.255187649279833 -0.04745161905884743 25.932640075683594 -48.48522186279297 -45.14569854736328 52.124080657958984 -50.808311462402344 -19.49974250793457 6.243988037109375 -56.165409088134766 73.93417358398438 8.911066055297852 128.6461181640625 -173.82562255859375 33.1729736328125 10.717729568481445 -0.3907134234905243 -0.23574791848659515 150.68067932128906 -1.6587716341018677 -14.202059745788574 90.81392669677734 84.21076202392578 -48.82532501220703 -149.6975555419922 156.73696899414062 -30.515798568725586 85.53802490234375 71.50955963134766 38.0953369140625 179.2913360595703 168.4153289794922 31.798828125 20.203588485717773 102.94689178466797 -59.901615142822266 -90.57401275634766 -106.2978515625 -32.50761795043945 -149.81544494628906 -101.6090316772461 -42.72660446166992 129.31893920898438 115.80048370361328 -19.032217025756836 171.9832305908203 130.51077270507812 38.87176513671875 48.90457534790039 153.86761474609375 -75.37925720214844 -141.7068328857422 172.37063598632812 -34.31824493408203 27.267942428588867 171.9449920654297 27.51725196838379 -38.571109771728516 -176.3179168701172 -1.2879443168640137 81.1464614868164 -63.8577766418457 42.17766571044922 -87.96052551269531 -111.08975219726562 49.62269973754883 -122.3838119506836 -58.88460922241211 9.423975944519043 -107.1128921508789 129.27645874023438 10.601441383361816 -24.06069564819336 -139.36773681640625 -7.847073078155518 170.47091674804688 -115.37714385986328 34.23220443725586 75.00389099121094 134.69712829589844 -43.205665588378906 85.54739379882812 160.88075256347656 -52.85307312011719 -87.19380950927734 -101.31742858886719 -7.075702667236328 -83.74018096923828 81.71260070800781 10.55873966217041 -103.4381332397461 -18.250774383544922 -26.747041702270508 106.59803771972656 56.13589096069336 44.337074279785156 -63.770965576171875 -9.390987396240234 -51.684120178222656 93.07969665527344 134.29530334472656 -43.29984664916992 21.28268814086914 111.36784362792969 -58.22417068481445 -165.50941467285156 -138.25209045410156 -41.718780517578125 -84.02783966064453 -173.39198303222656 -18.198022842407227 -92.71021270751953 -80.96485137939453 -0.09988228231668472 92.20469665527344 45.47547912597656 40.53925704956055 -128.1826934814453 121.85384368896484 -74.05423736572266 35.80077362060547 21.65488624572754 -62.31308364868164 3.807647943496704 -10.38003158569336 2.622741937637329 127.71626281738281 -72.82821655273438 -25.912574768066406 83.61426544189453
